<svg width="125" height="24" viewBox="0 0 125 24" fill="none" xmlns="http://www.w3.org/2000/svg">
<g opacity="0.25" filter="url(#filter0_d_109_17)">
<path d="M11.327 15.187C10.1143 15.187 9.07733 14.9773 8.216 14.558C7.35467 14.1387 6.64633 13.5833 6.091 12.892C5.547 12.2007 5.14467 11.43 4.884 10.58C4.62333 9.71867 4.493 8.85733 4.493 7.996C4.493 7.13467 4.62333 6.279 4.884 5.429C5.14467 4.579 5.547 3.80833 6.091 3.117C6.64633 2.42567 7.35467 1.87033 8.216 1.451C9.07733 1.03167 10.1143 0.821999 11.327 0.821999C12.5397 0.821999 13.5767 1.03167 14.438 1.451C15.2993 1.87033 16.002 2.42567 16.546 3.117C17.1013 3.80833 17.5093 4.579 17.77 5.429C18.0307 6.279 18.161 7.13467 18.161 7.996C18.161 8.85733 18.0307 9.71867 17.77 10.58C17.5207 11.43 17.1183 12.2007 16.563 12.892C16.019 13.5833 15.3107 14.1387 14.438 14.558C13.5767 14.9773 12.5397 15.187 11.327 15.187ZM11.344 12.892C10.6753 12.892 10.1313 12.7957 9.712 12.603C9.29267 12.4103 8.96967 12.1383 8.743 11.787C8.52767 11.4243 8.37467 10.9937 8.284 10.495C8.20467 9.985 8.165 9.424 8.165 8.812V6.993C8.165 6.13167 8.24433 5.395 8.403 4.783C8.573 4.171 8.88467 3.70633 9.338 3.389C9.80267 3.06033 10.4713 2.896 11.344 2.896C12.1373 2.896 12.7493 3.015 13.18 3.253C13.6107 3.491 13.9053 3.848 14.064 4.324C14.234 4.8 14.319 5.395 14.319 6.109V6.568H12.534V6.109C12.534 5.65567 12.4943 5.29867 12.415 5.038C12.347 4.766 12.228 4.57333 12.058 4.46C11.8993 4.34667 11.6727 4.29 11.378 4.29C11.038 4.29 10.7773 4.36367 10.596 4.511C10.4147 4.647 10.29 4.885 10.222 5.225C10.154 5.565 10.12 6.024 10.12 6.602V9.288C10.12 9.87733 10.1597 10.3307 10.239 10.648C10.3297 10.9653 10.4657 11.1863 10.647 11.311C10.8283 11.4243 11.072 11.481 11.378 11.481C11.718 11.481 11.9673 11.4073 12.126 11.26C12.296 11.1127 12.4037 10.9087 12.449 10.648C12.5057 10.376 12.534 10.0643 12.534 9.713V9.169H14.319V9.594C14.319 10.2853 14.234 10.8803 14.064 11.379C13.894 11.8663 13.5937 12.2403 13.163 12.501C12.7323 12.7617 12.126 12.892 11.344 12.892ZM11.378 14.439C12.4207 14.439 13.316 14.2577 14.064 13.895C14.8233 13.5323 15.4467 13.045 15.934 12.433C16.4213 11.821 16.784 11.1297 17.022 10.359C17.26 9.58833 17.379 8.80067 17.379 7.996C17.379 7.18 17.26 6.39233 17.022 5.633C16.784 4.86233 16.4213 4.171 15.934 3.559C15.4467 2.947 14.8233 2.46533 14.064 2.114C13.316 1.75133 12.4207 1.57 11.378 1.57C10.3353 1.57 9.43433 1.75133 8.675 2.114C7.91567 2.46533 7.29233 2.947 6.805 3.559C6.31767 4.171 5.955 4.86233 5.717 5.633C5.49033 6.39233 5.377 7.18 5.377 7.996C5.377 8.80067 5.49033 9.58833 5.717 10.359C5.955 11.1297 6.31767 11.821 6.805 12.433C7.29233 13.045 7.91567 13.5323 8.675 13.895C9.43433 14.2577 10.3353 14.439 11.378 14.439ZM19.3562 15V13.708L22.8582 8.251C23.1188 7.843 23.3568 7.46333 23.5722 7.112C23.7988 6.76067 23.9802 6.39233 24.1162 6.007C24.2635 5.61033 24.3372 5.157 24.3372 4.647C24.3372 4.01233 24.2352 3.51367 24.0312 3.151C23.8272 2.78833 23.4702 2.607 22.9602 2.607C22.5295 2.607 22.1952 2.726 21.9572 2.964C21.7192 3.202 21.5548 3.51367 21.4642 3.899C21.3735 4.28433 21.3282 4.698 21.3282 5.14V5.599H19.5092V5.123C19.5092 4.29567 19.6168 3.58733 19.8322 2.998C20.0588 2.39733 20.4158 1.93267 20.9032 1.604C21.4018 1.27533 22.0592 1.111 22.8752 1.111C23.9858 1.111 24.8132 1.42833 25.3572 2.063C25.9012 2.68633 26.1732 3.55333 26.1732 4.664C26.1732 5.25333 26.0995 5.769 25.9522 6.211C25.8162 6.653 25.6348 7.06667 25.4082 7.452C25.1815 7.83733 24.9322 8.234 24.6602 8.642L21.4982 13.47H25.8502V15H19.3562ZM31.1803 15.153C30.3983 15.153 29.7523 14.9773 29.2423 14.626C28.7437 14.2747 28.3697 13.793 28.1203 13.181C27.8823 12.569 27.7633 11.872 27.7633 11.09V5.157C27.7633 4.35233 27.8823 3.64967 28.1203 3.049C28.3583 2.437 28.7267 1.961 29.2253 1.621C29.7353 1.281 30.387 1.111 31.1803 1.111C31.9737 1.111 32.6197 1.281 33.1183 1.621C33.617 1.961 33.9853 2.437 34.2233 3.049C34.4613 3.64967 34.5803 4.35233 34.5803 5.157V11.09C34.5803 11.8833 34.4557 12.586 34.2063 13.198C33.9683 13.81 33.6 14.2917 33.1013 14.643C32.6027 14.983 31.9623 15.153 31.1803 15.153ZM31.1803 13.657C31.611 13.657 31.934 13.5323 32.1493 13.283C32.376 13.0337 32.529 12.7163 32.6083 12.331C32.699 11.9343 32.7443 11.5263 32.7443 11.107V5.14C32.7443 4.698 32.7047 4.28433 32.6253 3.899C32.546 3.50233 32.393 3.185 32.1663 2.947C31.951 2.709 31.6223 2.59 31.1803 2.59C30.7383 2.59 30.404 2.709 30.1773 2.947C29.9507 3.185 29.7977 3.50233 29.7183 3.899C29.639 4.28433 29.5993 4.698 29.5993 5.14V11.107C29.5993 11.5263 29.639 11.9343 29.7183 12.331C29.809 12.7163 29.9677 13.0337 30.1943 13.283C30.4323 13.5323 30.761 13.657 31.1803 13.657ZM36.2566 15V13.708L39.7586 8.251C40.0192 7.843 40.2572 7.46333 40.4726 7.112C40.6992 6.76067 40.8806 6.39233 41.0166 6.007C41.1639 5.61033 41.2376 5.157 41.2376 4.647C41.2376 4.01233 41.1356 3.51367 40.9316 3.151C40.7276 2.78833 40.3706 2.607 39.8606 2.607C39.4299 2.607 39.0956 2.726 38.8576 2.964C38.6196 3.202 38.4552 3.51367 38.3646 3.899C38.2739 4.28433 38.2286 4.698 38.2286 5.14V5.599H36.4096V5.123C36.4096 4.29567 36.5172 3.58733 36.7326 2.998C36.9592 2.39733 37.3162 1.93267 37.8036 1.604C38.3022 1.27533 38.9596 1.111 39.7756 1.111C40.8862 1.111 41.7136 1.42833 42.2576 2.063C42.8016 2.68633 43.0736 3.55333 43.0736 4.664C43.0736 5.25333 42.9999 5.769 42.8526 6.211C42.7166 6.653 42.5352 7.06667 42.3086 7.452C42.0819 7.83733 41.8326 8.234 41.5606 8.642L38.3986 13.47H42.7506V15H36.2566ZM48.0807 15.153C47.2987 15.153 46.6527 14.9773 46.1427 14.626C45.6441 14.2747 45.2701 13.793 45.0207 13.181C44.7827 12.569 44.6637 11.872 44.6637 11.09V5.157C44.6637 4.35233 44.7827 3.64967 45.0207 3.049C45.2587 2.437 45.6271 1.961 46.1257 1.621C46.6357 1.281 47.2874 1.111 48.0807 1.111C48.8741 1.111 49.5201 1.281 50.0187 1.621C50.5174 1.961 50.8857 2.437 51.1237 3.049C51.3617 3.64967 51.4807 4.35233 51.4807 5.157V11.09C51.4807 11.8833 51.3561 12.586 51.1067 13.198C50.8687 13.81 50.5004 14.2917 50.0017 14.643C49.5031 14.983 48.8627 15.153 48.0807 15.153ZM48.0807 13.657C48.5114 13.657 48.8344 13.5323 49.0497 13.283C49.2764 13.0337 49.4294 12.7163 49.5087 12.331C49.5994 11.9343 49.6447 11.5263 49.6447 11.107V5.14C49.6447 4.698 49.6051 4.28433 49.5257 3.899C49.4464 3.50233 49.2934 3.185 49.0667 2.947C48.8514 2.709 48.5227 2.59 48.0807 2.59C47.6387 2.59 47.3044 2.709 47.0777 2.947C46.8511 3.185 46.6981 3.50233 46.6187 3.899C46.5394 4.28433 46.4997 4.698 46.4997 5.14V11.107C46.4997 11.5263 46.5394 11.9343 46.6187 12.331C46.7094 12.7163 46.8681 13.0337 47.0947 13.283C47.3327 13.5323 47.6614 13.657 48.0807 13.657ZM56.6677 15L59.5917 1.23H61.4447L64.3857 15H62.5667L61.9377 11.532H59.1327L58.4697 15H56.6677ZM59.3877 10.155H61.6827L60.5267 3.95L59.3877 10.155ZM69.1675 15.153C68.1928 15.153 67.4335 14.949 66.8895 14.541C66.3568 14.133 65.9828 13.5833 65.7675 12.892C65.5635 12.2007 65.4615 11.43 65.4615 10.58V5.718C65.4615 4.78867 65.5635 3.97833 65.7675 3.287C65.9828 2.59567 66.3568 2.063 66.8895 1.689C67.4335 1.30367 68.1928 1.111 69.1675 1.111C70.0288 1.111 70.7088 1.26967 71.2075 1.587C71.7175 1.90433 72.0802 2.35767 72.2955 2.947C72.5222 3.53633 72.6355 4.24467 72.6355 5.072V6.16H70.8165V5.191C70.8165 4.681 70.7882 4.23333 70.7315 3.848C70.6862 3.45133 70.5502 3.14533 70.3235 2.93C70.0968 2.71467 69.7172 2.607 69.1845 2.607C68.6405 2.607 68.2438 2.726 67.9945 2.964C67.7452 3.19067 67.5808 3.51933 67.5015 3.95C67.4335 4.36933 67.3995 4.86233 67.3995 5.429V10.886C67.3995 11.5773 67.4562 12.127 67.5695 12.535C67.6828 12.9317 67.8698 13.215 68.1305 13.385C68.3912 13.555 68.7425 13.64 69.1845 13.64C69.7058 13.64 70.0798 13.5267 70.3065 13.3C70.5332 13.062 70.6748 12.739 70.7315 12.331C70.7882 11.923 70.8165 11.447 70.8165 10.903V9.883H72.6355V10.903C72.6355 11.7417 72.5335 12.484 72.3295 13.13C72.1255 13.7647 71.7742 14.2633 71.2755 14.626C70.7768 14.9773 70.0742 15.153 69.1675 15.153ZM74.4315 15L74.6865 1.23H76.5735L79.0045 12.399L81.4525 1.23H83.3225L83.5775 15H82.0305L81.8775 5.004L79.5485 15H78.4605L76.1485 5.004L75.9955 15H74.4315ZM85.6882 15V1.23H91.0262V2.658H87.6092V7.214H90.3802V8.574H87.6092V13.623H91.0602V15H85.6882ZM96.4958 15V1.23H98.4168V13.623H101.936V15H96.4958ZM103.253 15V1.23H105.174V13.623H108.693V15H103.253ZM113.361 15.153C112.386 15.153 111.627 14.949 111.083 14.541C110.55 14.133 110.176 13.5833 109.961 12.892C109.757 12.2007 109.655 11.43 109.655 10.58V5.718C109.655 4.78867 109.757 3.97833 109.961 3.287C110.176 2.59567 110.55 2.063 111.083 1.689C111.627 1.30367 112.386 1.111 113.361 1.111C114.222 1.111 114.902 1.26967 115.401 1.587C115.911 1.90433 116.274 2.35767 116.489 2.947C116.716 3.53633 116.829 4.24467 116.829 5.072V6.16H115.01V5.191C115.01 4.681 114.982 4.23333 114.925 3.848C114.88 3.45133 114.744 3.14533 114.517 2.93C114.29 2.71467 113.911 2.607 113.378 2.607C112.834 2.607 112.437 2.726 112.188 2.964C111.939 3.19067 111.774 3.51933 111.695 3.95C111.627 4.36933 111.593 4.86233 111.593 5.429V10.886C111.593 11.5773 111.65 12.127 111.763 12.535C111.876 12.9317 112.063 13.215 112.324 13.385C112.585 13.555 112.936 13.64 113.378 13.64C113.899 13.64 114.273 13.5267 114.5 13.3C114.727 13.062 114.868 12.739 114.925 12.331C114.982 11.923 115.01 11.447 115.01 10.903V9.883H116.829V10.903C116.829 11.7417 116.727 12.484 116.523 13.13C116.319 13.7647 115.968 14.2633 115.469 14.626C114.97 14.9773 114.268 15.153 113.361 15.153ZM118.421 15V12.977H120.24V15H118.421Z" fill="white"/>
</g>
<defs>
<filter id="filter0_d_109_17" x="0.49292" y="0.822021" width="123.747" height="22.365" filterUnits="userSpaceOnUse" color-interpolation-filters="sRGB">
<feFlood flood-opacity="0" result="BackgroundImageFix"/>
<feColorMatrix in="SourceAlpha" type="matrix" values="0 0 0 0 0 0 0 0 0 0 0 0 0 0 0 0 0 0 127 0" result="hardAlpha"/>
<feOffset dy="4"/>
<feGaussianBlur stdDeviation="2"/>
<feColorMatrix type="matrix" values="0 0 0 0 0 0 0 0 0 0 0 0 0 0 0 0 0 0 0.25 0"/>
<feBlend mode="normal" in2="BackgroundImageFix" result="effect1_dropShadow_109_17"/>
<feBlend mode="normal" in="SourceGraphic" in2="effect1_dropShadow_109_17" result="shape"/>
</filter>
</defs>
</svg>
